<svg id="Layer_1" data-name="Layer 1" xmlns="http://www.w3.org/2000/svg" viewBox="0 0 468 59.86"><defs><style>.cls-1{fill:#76777a;}.cls-2{fill:#ce0e2d;}</style></defs><title>northern-brewer-website-header-logo</title><path class="cls-1" d="M95.84,55.71,88.11,34.86l-2.55-7V55.71H78.93v-46h6.49L92.6,30.79l2.34,7.11V9.73h6.56v46Z" transform="translate(-2.63 -2.79)"/><path class="cls-1" d="M118.89,56.53c-6.62,0-11-4.48-11-10.9V19.81c0-6.35,4.35-10.9,11-10.9s11,4.55,11,10.9V45.63C129.87,52.05,125.52,56.53,118.89,56.53Zm3.59-37.27a3.59,3.59,0,1,0-7.18,0V46.18a3.59,3.59,0,1,0,7.18,0Z" transform="translate(-2.63 -2.79)"/><path class="cls-1" d="M154.1,55.91c-2.83,0-3.94-2.76-3.94-6.35V39.69c0-1.86-1-3.38-3-3.38H143.6v19.4h-7.31v-46H148c5.11,0,9,2.83,9,9.05v8.14a6.35,6.35,0,0,1-4.35,6.49,6.48,6.48,0,0,1,4.49,6.35v9.39a7.28,7.28,0,0,0,1.38,4.69v2.07ZM149.88,19c0-1.93-.75-3-2.48-3h-3.8V30.58h3.52c1.8,0,2.76-1,2.76-3.24Z" transform="translate(-2.63 -2.79)"/><path class="cls-1" d="M176,16.43V55.71h-7.31V16.43h-7.11V9.73H183v6.7Z" transform="translate(-2.63 -2.79)"/><path class="cls-1" d="M203,55.71V36.38h-7.73V55.71h-7.31v-46h7.31v20H203V9.73h7.32v46Z" transform="translate(-2.63 -2.79)"/><path class="cls-1" d="M217.11,55.71v-46h18.36v6.49h-11v12.7h7.66V35h-7.66V49h11v6.7Z" transform="translate(-2.63 -2.79)"/><path class="cls-1" d="M258.94,55.91c-2.83,0-3.93-2.76-3.93-6.35V39.69c0-1.86-1-3.38-3-3.38h-3.59v19.4h-7.32v-46h11.74c5.11,0,9,2.83,9,9.05v8.14a6.35,6.35,0,0,1-4.35,6.49,6.48,6.48,0,0,1,4.49,6.35v9.39a7.28,7.28,0,0,0,1.38,4.69v2.07ZM254.73,19c0-1.93-.76-3-2.48-3h-3.8V30.58H252c1.79,0,2.76-1,2.76-3.24Z" transform="translate(-2.63 -2.79)"/><path class="cls-1" d="M285.38,55.71l-7.73-20.85-2.56-7V55.71h-6.62v-46H275l7.18,21.06,2.35,7.11V9.73H291v46Z" transform="translate(-2.63 -2.79)"/><path class="cls-1" d="M320.72,55.71h-12v-46h11.87c5.11,0,8.83,2.7,8.83,8.91v6.69c0,3.46-1.31,5.94-4.55,6.91,3.38,1.1,4.69,3.52,4.69,6.9V46.8C329.55,53.08,325.76,55.71,320.72,55.71ZM322.37,19c0-1.93-.82-3-2.55-3h-3.73V29.68h3.45c1.8,0,2.83-1,2.83-3.17Zm.07,19.54c0-2.07-1-3.25-2.83-3.25h-3.52V49.42H320c1.72,0,2.48-1,2.48-3Z" transform="translate(-2.63 -2.79)"/><path class="cls-1" d="M353.57,55.91c-2.83,0-3.93-2.76-3.93-6.35V39.69c0-1.86-1-3.38-3-3.38h-3.59v19.4h-7.32v-46H347.5c5.1,0,9,2.83,9,9.05v8.14a6.35,6.35,0,0,1-4.35,6.49,6.48,6.48,0,0,1,4.49,6.35v9.39a7.28,7.28,0,0,0,1.38,4.69v2.07ZM349.36,19c0-1.93-.76-3-2.48-3h-3.8V30.58h3.52c1.79,0,2.76-1,2.76-3.24Z" transform="translate(-2.63 -2.79)"/><path class="cls-1" d="M363.16,55.71v-46h18.37v6.49h-11v12.7h7.66V35h-7.66V49h11v6.7Z" transform="translate(-2.63 -2.79)"/><path class="cls-1" d="M412.59,55.71H406.1l-3.8-27.34-4.21,27.34h-6.42L385,9.73h7.24l3.32,30.72,4.35-30.72h5.66l3.86,30.72,3.73-30.72h6.76Z" transform="translate(-2.63 -2.79)"/><path class="cls-1" d="M424.32,55.71v-46h18.36v6.49h-11v12.7h7.66V35h-7.66V49h11v6.7Z" transform="translate(-2.63 -2.79)"/><path class="cls-1" d="M466.15,55.91c-2.83,0-3.94-2.76-3.94-6.35V39.69c0-1.86-1-3.38-3-3.38h-3.59v19.4h-7.31v-46h11.73c5.11,0,9,2.83,9,9.05v8.14a6.35,6.35,0,0,1-4.34,6.49,6.48,6.48,0,0,1,4.48,6.35v9.39a7.34,7.34,0,0,0,1.38,4.69v2.07ZM461.94,19c0-1.93-.76-3-2.49-3h-3.8V30.58h3.53c1.79,0,2.76-1,2.76-3.24Z" transform="translate(-2.63 -2.79)"/><path class="cls-2" d="M35.24,4.62C34,2.18,32,2.18,30.8,4.62L3.16,59.91c-1.23,2.44-.23,3.44,2.22,2.22,0,0,24.13-12.85,27.64-12.85S60.66,62.13,60.66,62.13c2.45,1.22,3.45.22,2.23-2.22Z" transform="translate(-2.63 -2.79)"/></svg>