<svg xmlns="http://www.w3.org/2000/svg" width="213.558" height="86.596" viewBox="0 0 213.558 86.596">
  <g id="Group_315" data-name="Group 315" transform="translate(-13.312 -18.809)">
    <g id="Group_312" data-name="Group 312" transform="translate(126.327 83.619)">
      <path id="Path_517" data-name="Path 517" d="M241.954,151.723a2.827,2.827,0,0,0,.269,1,1.2,1.2,0,0,0,.457.515,1.42,1.42,0,0,0,.678.144,1.5,1.5,0,0,0,.7-.12c.723-.361.826-1.42.873-2.123.007-.1.015-.205.015-.308l-.089-16.259h3.557l-.006,1.759.006,14.937a3.935,3.935,0,0,1-1.207,3.209,6.431,6.431,0,0,1-4.117,1.182,6.588,6.588,0,0,1-4.218-1.2,4.577,4.577,0,0,1-.655-.708,3.966,3.966,0,0,1-.84-2.461c0-3.8.012-14.75,0-14.954l0-1.759h4.566S241.93,151.49,241.954,151.723Z" transform="translate(-224.357 -134.268)" fill="#1a1818"/>
      <path id="Path_518" data-name="Path 518" d="M266.667,148.257l-.595.033,0,.2.006,5.412.011,1.76h-4.912l.037-1.76.1-17.568-.006-1.759h5.216c5.471,0,7.242,2.154,7.21,6.865C273.7,148.222,267.795,148.238,266.667,148.257Zm-.6-1.823c2.738-.114,2.72-.973,2.785-4.934.084-5.056-.6-5.189-2.731-5.151l-.02.8Z" transform="translate(-234.77 -134.268)" fill="#1a1818"/>
      <path id="Path_519" data-name="Path 519" d="M291.371,148.257l-.595.033,0,.2.006,5.412.011,1.76H285.88l.037-1.76.1-17.568-.006-1.759h5.215c5.472,0,7.241,2.154,7.211,6.865C298.4,148.222,292.5,148.238,291.371,148.257Zm-.6-1.823c2.738-.114,2.72-.973,2.785-4.934.084-5.056-.6-5.189-2.731-5.151l-.02.8Z" transform="translate(-245.578 -134.268)" fill="#1a1818"/>
      <path id="Path_520" data-name="Path 520" d="M310.361,136.334v-1.759h4.6l.006,1.759c-.02.536-.006,17.568-.006,17.568l4.374-.012-.04,1.772H310.36V153.9S310.363,136.386,310.361,136.334Z" transform="translate(-256.288 -134.268)" fill="#1a1818"/>
      <path id="Path_521" data-name="Path 521" d="M333.5,155.662h-4.552V134.575H333.5Z" transform="translate(-264.419 -134.268)" fill="#1a1818"/>
      <path id="Path_522" data-name="Path 522" d="M346.505,153.9h4.316v1.76H341.97V153.9l-.013-17.568.013-1.759h8.85l0,1.759h-4.316v7.049l3.379-.053v2.04l-3.379.031Z" transform="translate(-270.112 -134.268)" fill="#1a1818"/>
      <path id="Path_523" data-name="Path 523" d="M363.86,138.32c.094,1.472,2.5,3.451,4.315,5.192s3.657,4.261,2.813,7.442a6.48,6.48,0,0,1-6.66,4.861,8.69,8.69,0,0,1-4.439-.96l.97-2.042a3.937,3.937,0,0,0,3.346,1.651,2.924,2.924,0,0,0,2.907-3c.062-2.04-1.438-3.212-3.783-5.462-2.376-2.251-3.94-4.051-3.6-7.051.344-2.881,3.1-4.921,6.691-4.921a6.578,6.578,0,0,1,3.658.991l-.876,1.859a3.531,3.531,0,0,0-2.689-1.559C364.548,135.291,363.766,136.7,363.86,138.32Z" transform="translate(-277.869 -134.029)" fill="#1a1818"/>
      <path id="Path_524" data-name="Path 524" d="M218.406,138.32c.094,1.472,2.5,3.451,4.315,5.192s3.657,4.261,2.813,7.442a6.479,6.479,0,0,1-6.659,4.861,8.69,8.69,0,0,1-4.439-.96l.97-2.042a3.937,3.937,0,0,0,3.345,1.651,2.924,2.924,0,0,0,2.907-3c.062-2.04-1.438-3.212-3.783-5.462-2.375-2.251-3.939-4.051-3.6-7.051.345-2.881,3.1-4.921,6.691-4.921a6.58,6.58,0,0,1,3.659.991l-.876,1.859a3.53,3.53,0,0,0-2.689-1.559C219.094,135.291,218.312,136.7,218.406,138.32Z" transform="translate(-214.231 -134.029)" fill="#1a1818"/>
    </g>
    <g id="Group_314" data-name="Group 314" transform="translate(13.312 18.809)">
      <path id="Path_525" data-name="Path 525" d="M44.439,18.821l13.291.038V30.05l.078,61.65-11.782-9.65.15-41.284L37.042,78.424H29.6s-6.39-29.956-10.259-39.705l0,47.513L13.312,89.2V18.84l14.8-.031S35.541,48.9,35.569,49.172C35.521,48.927,44.439,18.821,44.439,18.821Z" transform="translate(-13.312 -18.809)" fill="#1a1818"/>
      <g id="Group_313" data-name="Group 313" transform="translate(50.191 13.114)">
        <path id="Path_526" data-name="Path 526" d="M145.648,43.524a14.372,14.372,0,0,1,4.693,2.711c5.542,4.785,6.887,11.954,6.849,18.956-.028,5.257.084,10.983-2.351,15.794A13.422,13.422,0,0,1,149.2,86.9c-3.362,1.745-7.533,1.86-11.245,1.86h-9.581l-.046-46.47c2.73-.1,5.934.033,8.666.056A26.6,26.6,0,0,1,145.648,43.524Zm-7.23,37.887c6.965.288,9.407-3.069,9.065-17.113-.259-10.623-2.554-15.726-9-15.372Z" transform="translate(-113.825 -42.179)" fill="#1a1818"/>
        <path id="Path_527" data-name="Path 527" d="M213.861,42.317,217.525,68.2c.418-2.622,2.167-25.886,2.167-25.886h6.264s-5.171,46.475-5.151,46.47H210.212L204.93,48.768c-.565,4.224-5.447,40.019-5.447,40.019l-11.168.01L182.1,42.317h11.212L196.783,68.2l3.45-25.886Z" transform="translate(-137.35 -42.208)" fill="#1a1818"/>
        <path id="Path_528" data-name="Path 528" d="M316.213,51.317c.192,3.148,5.142,7.391,8.87,11.12s7.522,9.124,5.784,15.937c-1.671,6.556-6.875,10.413-13.69,10.413-4.756,0-7.521-1.092-9.126-2.056l1.992-4.372a8,8,0,0,0,6.878,3.538A6.138,6.138,0,0,0,322.9,79.47c.129-4.374-2.954-6.879-7.776-11.7-4.887-4.821-8.1-8.678-7.392-15.1.707-6.171,6.362-10.542,13.754-10.542A13.109,13.109,0,0,1,329,44.246l-1.8,3.987a7.207,7.207,0,0,0-5.53-3.344C317.627,44.825,316.02,47.845,316.213,51.317Z" transform="translate(-192.27 -42.124)" fill="#1a1818"/>
        <path id="Path_529" data-name="Path 529" d="M366.952,83.583l.023,4.889h-9.53l.015-4.889-.015-37.465h-7.3l.022-3.8h24.051l.017,3.8h-7.263Z" transform="translate(-210.872 -42.208)" fill="#1a1818"/>
        <path id="Path_530" data-name="Path 530" d="M112.561,88.692H102.542V42.275h10.019Z" transform="translate(-102.542 -42.19)" fill="#1a1818"/>
        <path id="Path_531" data-name="Path 531" d="M278.981,84.866h9.486v3.868H269.014V84.866l-.028-38.607.028-3.866h19.449l0,3.866h-9.486V61.751l7.425-.118v4.483l-7.425.068Z" transform="translate(-175.363 -42.242)" fill="#1a1818"/>
      </g>
    </g>
  </g>
</svg>
